<?xml version="1.0" standalone="no"?>
<!DOCTYPE svg PUBLIC "-//W3C//DTD SVG 20010904//EN"
 "http://www.w3.org/TR/2001/REC-SVG-20010904/DTD/svg10.dtd">
<svg version="1.0" xmlns="http://www.w3.org/2000/svg"
 width="652.000000pt" height="200.000000pt" viewBox="0 0 652.000000 200.000000"
 preserveAspectRatio="xMidYMid meet">

<g transform="translate(0.000000,200.000000) scale(0.100000,-0.100000)"
fill="#000000" stroke="none">
<path d="M2215 1619 c-356 -18 -372 -20 -422 -44 -61 -30 -109 -94 -118 -159
-6 -39 29 -856 40 -960 8 -64 26 -98 89 -164 56 -60 105 -89 163 -97 21 -3
252 5 513 18 525 27 521 26 588 96 71 75 72 86 42 699 -15 302 -24 420 -35
446 -22 52 -66 97 -137 142 l-63 39 -145 2 c-80 0 -311 -8 -515 -18z m836
-165 c16 -36 22 -103 39 -450 28 -577 28 -585 -7 -642 -16 -27 -48 -59 -75
-75 l-46 -29 -483 -23 c-469 -23 -527 -23 -577 4 -24 13 -30 23 -8 15 14 -5
851 31 954 41 92 9 164 60 196 137 21 49 20 107 -5 613 -15 303 -25 429 -35
454 l-14 34 21 -19 c12 -10 30 -38 40 -60z m-363 -322 c2 -22 8 -32 20 -32 10
0 13 -3 7 -8 -14 -9 -11 -224 4 -277 6 -22 10 -51 10 -65 l-1 -25 -8 25 c-7
22 -8 21 -9 -12 -1 -21 4 -38 9 -38 6 0 10 -12 10 -26 0 -18 -4 -25 -14 -21
-18 7 -31 -24 -14 -34 6 -4 16 -5 21 -2 5 3 3 -5 -3 -18 -18 -33 -24 -38 -16
-12 6 18 4 22 -9 17 -10 -4 -14 -13 -10 -23 12 -29 10 -33 -24 -52 -19 -10
-49 -31 -66 -46 -18 -16 -42 -33 -55 -39 -14 -6 -19 -13 -13 -17 5 -3 27 9 49
28 21 19 41 32 43 29 3 -3 -2 -10 -12 -15 -9 -6 -15 -14 -12 -20 4 -5 -1 -9
-10 -9 -9 0 -13 -4 -10 -10 4 -6 -1 -7 -11 -3 -13 5 -15 3 -9 -8 4 -8 5 -11 0
-7 -4 4 -15 2 -23 -5 -13 -9 -14 -9 -8 1 9 15 -6 16 -22 0 -9 -9 -12 -9 -12 1
0 7 -5 9 -10 6 -6 -4 -8 -11 -5 -16 4 -5 -1 -9 -10 -9 -9 0 -14 4 -10 9 3 6
-4 9 -15 8 -11 -1 -20 -5 -20 -9 0 -9 -68 -1 -146 17 -45 10 -124 73 -161 128
-20 30 -37 74 -47 120 -16 76 -39 458 -28 468 4 4 69 9 145 13 l137 6 0 -24
c0 -14 5 -28 10 -31 6 -4 7 -11 4 -17 -4 -6 0 -14 7 -19 11 -6 11 -11 1 -21
-14 -14 -16 -32 -2 -23 14 9 13 -41 -1 -64 -9 -13 -9 -26 -2 -48 6 -16 9 -42
6 -56 -3 -15 1 -34 8 -44 10 -12 10 -14 2 -9 -9 5 -13 -1 -13 -23 0 -16 5 -33
11 -36 6 -4 8 -14 5 -22 -3 -8 -1 -11 4 -8 6 3 10 1 10 -4 0 -16 26 -13 39 3
9 11 9 65 1 226 -6 117 -9 215 -5 218 6 6 226 20 265 18 9 -1 16 -13 18 -34z
m-318 -382 c0 -5 -2 -10 -4 -10 -3 0 -8 5 -11 10 -3 6 -1 10 4 10 6 0 11 -4
11 -10z m310 -235 c-7 -8 -17 -15 -23 -15 -6 0 -2 7 9 15 25 19 30 19 14 0z"/>
<path d="M2332 980 c0 -14 2 -19 5 -12 2 6 2 18 0 25 -3 6 -5 1 -5 -13z"/>
<path d="M2705 680 c-3 -5 -1 -10 4 -10 6 0 11 5 11 10 0 6 -2 10 -4 10 -3 0
-8 -4 -11 -10z"/>
<path d="M2665 571 c-3 -5 -1 -12 5 -16 5 -3 10 1 10 9 0 18 -6 21 -15 7z"/>
<path d="M2645 540 c-3 -5 -1 -10 4 -10 6 0 11 5 11 10 0 6 -2 10 -4 10 -3 0
-8 -4 -11 -10z"/>
<path d="M4966 1625 c-51 -18 -112 -79 -131 -129 -22 -61 -89 -984 -75 -1036
12 -45 86 -147 138 -190 20 -17 53 -35 72 -40 19 -5 136 -16 260 -24 124 -9
338 -23 476 -33 284 -19 314 -16 382 43 76 65 78 72 112 557 16 240 30 468 30
509 -1 94 -26 147 -101 206 -103 82 -88 79 -606 117 -534 40 -506 39 -557 20z
m1230 -252 c19 -45 18 -99 -16 -596 -33 -482 -33 -483 -104 -544 -55 -49 -91
-56 -244 -48 -74 4 -144 8 -156 10 -11 2 -68 6 -126 10 -58 3 -132 8 -165 10
-33 3 -130 9 -215 15 -171 12 -213 20 -250 50 l-25 20 40 -5 c22 -3 244 -21
492 -39 499 -37 515 -37 585 17 84 64 83 62 123 607 24 343 32 497 25 525 -8
37 -8 39 7 20 8 -11 21 -34 29 -52z m-666 -109 c124 -9 227 -18 230 -20 2 -3
-1 -19 -8 -36 -9 -24 -9 -35 0 -43 8 -7 9 -6 5 6 -3 9 0 16 8 16 10 0 8 -11
-8 -38 -22 -39 -38 -47 -18 -10 10 17 9 20 -4 15 -8 -4 -15 -10 -15 -15 0 -18
-3 -25 -21 -50 -11 -15 -16 -34 -12 -47 4 -17 1 -22 -15 -22 -11 0 -23 -7 -26
-16 -5 -14 -4 -15 8 -5 12 10 15 9 13 -7 -1 -14 -7 -18 -22 -15 -11 3 -16 1
-10 -4 14 -11 18 -40 6 -47 -5 -4 -13 -1 -17 5 -4 8 -3 9 4 5 7 -4 12 -2 12 3
0 18 -19 12 -31 -10 -8 -16 -8 -24 2 -33 9 -8 10 -7 5 9 -6 15 -4 17 5 8 14
-14 3 -34 -15 -27 -8 3 -17 0 -21 -6 -3 -6 -3 -10 2 -9 19 3 23 -2 11 -15 -7
-8 -17 -11 -22 -8 -5 3 -6 -3 -3 -12 5 -14 3 -17 -8 -12 -8 3 -14 2 -13 -2 1
-4 -3 -17 -10 -29 -16 -30 -7 -33 96 -41 l87 -7 6 -40 c4 -22 4 -44 1 -50 -10
-16 -10 -58 -1 -82 6 -15 4 -27 -6 -37 -11 -11 -12 -16 -2 -20 6 -3 -1 -2 -17
1 -20 4 -27 3 -22 -6 4 -6 2 -11 -3 -11 -6 0 -11 5 -11 10 0 6 -13 8 -30 5
-16 -3 -30 -2 -30 3 0 4 -29 8 -65 9 -36 1 -75 5 -86 8 -15 5 -19 4 -15 -4 5
-8 -1 -7 -19 1 -22 10 -28 9 -36 -3 -6 -10 -11 -11 -16 -3 -5 6 -26 14 -48 18
-31 5 -37 4 -25 -5 12 -9 11 -10 -5 -3 -11 4 -32 8 -47 8 -15 1 -30 5 -34 9
-4 4 -18 7 -31 7 -13 0 -23 4 -23 9 0 5 52 108 115 228 63 121 115 226 115
234 0 11 -15 15 -62 16 -35 1 -81 5 -103 10 l-40 9 3 59 c1 33 5 84 8 113 l6
53 51 -5 c29 -3 153 -13 277 -22z m184 -188 c-3 -9 -10 -16 -15 -16 -5 0 -4 9
3 20 14 22 21 20 12 -4z m-140 -281 c-4 -8 -11 -12 -16 -9 -6 4 -5 10 3 15 19
12 19 11 13 -6z"/>
<path d="M335 1611 c-50 -23 -89 -64 -110 -115 -13 -30 -26 -163 -53 -530
l-36 -491 26 -55 c29 -63 110 -149 164 -175 29 -14 131 -24 488 -51 502 -37
525 -38 579 -23 50 14 115 73 139 127 19 42 27 137 84 928 11 146 -16 200
-145 292 -24 17 -67 36 -95 42 -56 11 -847 70 -941 70 -37 0 -76 -8 -100 -19z
m1256 -263 c10 -41 0 -219 -47 -817 -16 -213 -25 -244 -88 -299 -66 -58 -64
-58 -599 -19 -432 32 -491 39 -524 57 l-38 21 40 -5 c22 -3 245 -20 496 -38
394 -28 462 -30 500 -19 59 18 131 92 147 152 16 58 75 883 70 977 -3 72 -3
73 14 52 10 -12 23 -40 29 -62z m-671 -28 c171 -32 278 -134 337 -320 3 -8 5
-50 5 -92 0 -43 4 -75 9 -72 5 3 6 -2 3 -10 -3 -9 -11 -13 -18 -9 -7 4 -7 1 1
-7 10 -11 9 -16 -5 -27 -16 -14 -16 -14 0 -9 12 3 15 1 12 -9 -3 -8 -13 -11
-22 -8 -14 5 -13 2 3 -17 11 -13 14 -20 8 -16 -8 4 -13 2 -14 -6 0 -8 -3 -7
-7 3 -6 13 -11 9 -23 -17 -9 -18 -12 -31 -8 -28 5 3 9 0 9 -5 0 -6 -6 -11 -14
-11 -16 0 -32 -29 -35 -66 0 -8 -6 -12 -11 -9 -8 5 -7 11 1 21 6 8 7 14 2 14
-13 0 -44 -56 -35 -65 4 -5 1 -5 -6 -1 -7 4 -10 13 -6 19 3 7 -1 4 -9 -5 -8
-10 -17 -15 -21 -11 -4 4 -4 -1 0 -11 5 -14 9 -15 15 -4 6 9 9 9 9 1 0 -22
-23 -26 -37 -8 -7 11 -13 13 -13 6 0 -7 -4 -10 -9 -6 -5 3 -13 0 -17 -6 -5 -9
0 -10 14 -7 14 4 20 2 16 -4 -4 -5 -18 -8 -32 -5 -29 6 -76 -12 -79 -31 -2 -6
2 -12 7 -12 6 0 10 -4 10 -10 0 -5 -3 -9 -7 -9 -21 3 -24 -3 -12 -18 12 -15
12 -16 -2 -11 -9 4 -22 1 -29 -5 -8 -8 -11 -8 -7 -1 4 7 -4 11 -21 12 -15 0
-42 4 -61 8 -23 5 -36 3 -42 -7 -6 -10 -9 -10 -9 -2 0 7 -18 16 -40 19 -37 6
-40 9 -40 40 0 29 -5 36 -32 47 -63 26 -146 114 -186 196 -36 74 -37 79 -37
186 0 104 2 114 33 177 53 109 161 194 287 224 64 16 99 16 165 4z m310 -630
c0 -5 -5 -10 -11 -10 -5 0 -7 5 -4 10 3 6 8 10 11 10 2 0 4 -4 4 -10z m-210
-196 c0 -2 -9 -4 -21 -4 -11 0 -18 4 -14 10 5 8 35 3 35 -6z"/>
<path d="M790 1059 c0 -5 -3 -8 -8 -5 -8 5 -29 -10 -55 -41 -14 -16 -15 -23
-6 -29 8 -5 10 -3 4 6 -5 9 -4 11 3 6 8 -4 12 0 12 11 0 15 2 16 11 3 8 -13 9
-12 7 4 -2 11 4 20 14 21 16 3 16 1 2 -20 -8 -13 -22 -26 -30 -29 -9 -4 -12
-11 -8 -18 5 -9 2 -8 -9 1 -10 8 -20 11 -24 7 -10 -10 -6 -118 5 -146 l10 -25
7 32 7 33 77 -6 c137 -9 141 -11 141 -46 l0 -31 22 28 c31 39 37 131 12 171
-22 35 -41 51 -74 66 -35 15 -120 20 -120 7z"/>
<path d="M3490 1571 c-78 -16 -151 -81 -170 -151 -5 -19 -25 -248 -45 -509
-28 -377 -33 -482 -24 -515 16 -59 56 -134 87 -163 61 -57 85 -62 369 -83 148
-11 362 -27 478 -36 222 -17 265 -15 323 15 49 25 77 56 102 113 17 40 25 113
56 530 29 390 34 492 25 526 -7 24 -34 68 -63 103 -86 104 -79 102 -598 138
-245 17 -458 33 -475 35 -16 2 -46 0 -65 -3z m1150 -822 c-16 -228 -33 -431
-36 -451 -10 -63 -55 -122 -117 -152 l-55 -27 -492 36 c-460 34 -496 38 -540
60 -25 13 -53 31 -61 41 -11 14 -6 13 29 -5 38 -20 90 -25 530 -57 545 -40
543 -40 614 24 73 65 74 73 108 533 16 228 33 446 37 484 l8 70 3 -71 c2 -39
-11 -257 -28 -485z m-557 444 c4 -2 7 -15 7 -28 0 -13 6 -25 13 -28 9 -3 9 -8
-2 -21 -16 -20 -25 -103 -11 -111 9 -6 2 -45 -9 -45 -4 0 -6 -30 -6 -67 1 -38
-4 -74 -9 -81 -7 -9 -5 -16 5 -23 8 -5 9 -9 2 -9 -7 0 -12 -15 -12 -37 0 -21
-3 -69 -6 -108 -3 -38 -6 -89 -5 -112 0 -23 -4 -45 -10 -48 -6 -4 -8 -10 -6
-14 3 -4 -5 -8 -17 -8 -17 -2 -19 0 -7 7 13 9 13 10 0 10 -9 0 -21 -5 -28 -12
-8 -8 -12 -9 -12 -1 0 6 -9 9 -21 6 -11 -3 -32 0 -45 8 -22 11 -27 11 -34 -1
-6 -9 -10 -10 -10 -4 0 7 -11 15 -25 18 -20 5 -25 13 -25 39 -1 47 41 659 46
676 4 11 25 12 112 6 59 -4 110 -9 115 -12z"/>
</g>
</svg>
